# xmcd CD database file
#
# Track frame offsets:
#	187
#	35200
#	94572
#	134507
#	159167
#
# Disc length: 2586 seconds
#
# Revision: 0
# Processed by: cddbd v1.5.1PL0 Copyright (c) Steve Scherf et al.
# Submitted via: CDex 1.51
#
DISCID=390a1805
DTITLE=Thelonious Monk - Brilliant Corners
DYEAR=1956
DGENRE=Jazz
TTITLE0=Brilliant Corners
TTITLE1=Ba-Lue Bolivar Ba-Lues Are
TTITLE2=Pannonica
TTITLE3=I Surrender, Dear
TTITLE4=Bemsha Swing
EXTD=YEAR: 1956
EXTT0=
EXTT1=
EXTT2=
EXTT3=
EXTT4=
PLAYORDER=
